# AST/ASF file generated using VICON BodyLanguage
# -----------------------------------------------
:version 1.10
:name VICON
:units
  mass 1.0
  length 0.45
  angle deg
:documentation
   .ast/.asf automatically generated from VICON data using
   VICON BodyBuilder and BodyLanguage model FoxedUp or BRILLIANT.MOD
:root
   order TX TY TZ RX RY RZ
   axis XYZ
   position 0 0 0  
   orientation 0 0 0 
:bonedata
  begin
     id 1 
     name lhipjoint
     direction 0.561145 -0.797705 0.220866 
     length 2.46425 
     axis 0 0 0  XYZ
  end
  begin
     id 2 
     name lfemur
     direction 0.34202 -0.939693 0  
     length 7.95556  
     axis 0 0 20  XYZ
    dof rx ry rz
    limits (-160.0 20.0)
           (-70.0 70.0)
           (-60.0 70.0)
  end
  begin
     id 3 
     name ltibia
     direction 0.34202 -0.939693 0   
     length 7.9832   
     axis 0 0 20   XYZ
    dof rx
    limits (-10.0 170.0)
  end
  begin
     id 4 
     name lfoot
     direction 0.0723927 -0.198897 0.977343   
     length 2.23085   
     axis -90 7.62852e-016 20   XYZ
    dof rx rz
    limits (-45.0 90.0)
           (-70.0 20.0)
  end
  begin
     id 5 
     name ltoes
     direction 1.53826e-011 -4.21988e-011 1   
     length 1.12127   
     axis -90 7.62852e-016 20   XYZ
    dof rx
    limits (-90.0 20.0)
  end
  begin
     id 6 
     name rhipjoint
     direction -0.610499 -0.763299 0.21134   
     length 2.57533  
     axis 0 0 0  XYZ 
  end
  begin
     id 7 
     name rfemur
     direction -0.34202 -0.939693 0   
     length 8.65257   
     axis 0 0 -20   XYZ
    dof rx ry rz
    limits (-160.0 20.0)
           (-70.0 70.0)
           (-70.0 60.0)
  end
  begin
     id 8 
     name rtibia
     direction -0.342021 -0.939692 0   
     length 7.37807   
     axis 0 0 -20   XYZ
    dof rx
    limits (-10.0 170.0)
 end
 begin
     id 9 
     name rfoot
     direction -0.0239304 -0.0543852 0.998233   
     length 1.87018  
     axis -90 -7.62852e-016 -20   XYZ
    dof rx rz
    limits (-45.0 90.0)
           (-20.0 70.0)
  end
  begin
     id 10 
     name rtoes
     direction -1.53584e-011 -4.2242e-011 1   
     length 0.951568   
     axis -90 -7.62852e-016 -20   XYZ
    dof rx
    limits (-90.0 20.0)
  end
  begin
     id 11 
     name lowerback
     direction 0.00322089 0.999033 0.0438587   
     length 2.07568   
     axis 0 0 0   XYZ
    dof rx ry rz
    limits (-20.0 45.0)
           (-30.0 30.0)
           (-30.0 30.0)
  end
  begin
     id 12 
     name upperback
     direction -0.00321932 0.999732 -0.0229403   
     length 2.06253   
     axis 0 0 0   XYZ
    dof rx ry rz
    limits (-20.0 45.0)
           (-30.0 30.0)
           (-30.0 30.0)
  end
  begin
     id 13 
     name thorax
     direction -0.00537537 0.998955 -0.0453918   
     length 2.06975   
     axis 0 0 0   XYZ
    dof rx ry rz
    limits (-20.0 45.0)
           (-30.0 30.0)
           (-30.0 30.0)
  end
  begin
     id 14 
     name lowerneck
     direction -0.00013604 0.994111 0.108363   
     length 1.50836   
     axis 0 0 0   XYZ
    dof rx ry rz
    limits (-20.0 45.0)
           (-30.0 30.0)
           (-30.0 30.0)
  end
  begin
     id 15 
     name upperneck
     direction 0.0397262 0.983859 -0.174482   
     length 1.53037   
     axis 0 0 0   XYZ
    dof rx ry rz
    limits (-20.0 45.0)
           (-30.0 30.0)
           (-30.0 30.0)
  end
  begin
     id 16
     name head
     direction 0.0109991 0.997082 -0.0755378  
     length 1.56928  
     axis 0 0 0   XYZ
    dof rx ry rz
    limits (-20.0 45.0)
           (-30.0 30.0)
           (-30.0 30.0)
  end
  begin
     id 17 
     name lclavicle
     direction 0.964749 0.254 -0.068874  
     length 3.26503  
     axis 0 0 0   XYZ
    dof ry rz
    limits (-20.0 10.0)
           (0.0 20.0)
  end
  begin
     id 18 
     name lhumerus
     direction 1 -4.48941e-011 -2.05079e-027   
     length 5.68236   
     axis 180 -30 -90   XYZ
    dof rx ry rz
    limits (-60.0 90.0)
           (-90.0 90.0)
           (-90.0 90.0)
  end
  begin
     id 19
     name lradius
     direction 1 -4.48956e-011 6.2882e-027   
     length 3.17112   
     axis 180 -30 -90   XYZ
    dof rx
    limits (-10.0 170.0)
  end
  begin
     id 20
     name lwrist
     direction 1 -4.49014e-011 1.73219e-026   
     length 1.58556   
     axis -1.04724e-014 90 90   XYZ
    dof ry
    limits (-180.0 0.0)
 end
  begin
     id 21 
     name lhand
     direction 1 -4.49312e-011 3.46438e-026   
     length 0.632691   
     axis -2.21057e-014 90 90   XYZ
    dof rx rz
    limits (-90.0 90.0)
           (-45.0 45.0)
  end
  begin
     id 22 
     name lfingers
     direction 1 -4.48894e-011 6.92876e-026   
     length 0.510091   
     axis -4.42114e-014 90 90   XYZ
    dof rx
    limits (0.0 90.0)
  end
  begin
     id 23
     name lthumb
     direction 0.707107 -6.34705e-011 0.707107   
     length 0.732392   
     axis -90 45 2.85299e-015   XYZ
    dof rx rz
    limits (-45.0 45.0)
           (-45.0 45.0)
  end
  begin
     id 24 
     name rclavicle
     direction -0.954374 0.280496 -0.102435   
     length 3.25419  
     axis 0 0 0   XYZ 
    dof ry rz
    limits (-10.0 20.0)
           (-20.0 0.0)
  end
  begin
     id 25 
     name rhumerus
     direction -1 -4.48994e-011 -1.07204e-017  
     length 5.8712   
     axis 180 30 90   XYZ
    dof rx ry rz
    limits (-90.0 60.0)
           (-90.0 90.0)
           (-90.0 90.0)
  end
  begin
     id 26 
     name rradius
     direction -1 -4.48972e-011 5.89292e-027   
     length 3.37589   
     axis 180 30 90   XYZ
    dof rx
    limits (-10.0 170.0)
  end
  begin
     id 27 
     name rwrist
     direction -1 -4.48942e-011 1.73219e-026   
     length 1.68794   
     axis -1.04724e-014 -90 -90   XYZ
    dof ry
    limits (-180.0 0.0)
  end
  begin
     id 28
     name rhand
     direction -1 -4.48514e-011 3.46438e-026   
     length 0.603257   
     axis -2.21057e-014 -90 -90   XYZ
    dof rx rz
    limits (-90.0 90.0)
           (-45.0 45.0)
  end
  begin
     id 29
     name rfingers
     direction -1 -4.50028e-011 6.92876e-026   
     length 0.486362   
     axis -4.42114e-014 -90 -90   XYZ
    dof rx
    limits (0.0 90.0)
  end
  begin
     id 30
     name rthumb
     direction -0.707107 -6.34926e-011 0.707107   
     length 0.698321   
     axis -90 -45 -2.85299e-015   XYZ
    dof rx rz
    limits (-45.0 45.0)
           (-45.0 45.0)
  end
:hierarchy
  begin
    root lhipjoint rhipjoint lowerback
    lhipjoint lfemur
    lfemur ltibia
    ltibia lfoot
    lfoot ltoes
    rhipjoint rfemur
    rfemur rtibia
    rtibia rfoot
    rfoot rtoes
    lowerback upperback
    upperback thorax
    thorax lowerneck lclavicle rclavicle
    lowerneck upperneck
    upperneck head
    lclavicle lhumerus
    lhumerus lradius
    lradius lwrist
    lwrist lhand lthumb
    lhand lfingers
    rclavicle rhumerus
    rhumerus rradius
    rradius rwrist
    rwrist rhand rthumb
    rhand rfingers
  end

#!OML:ASF I:\Segmentation\Patient Classification 1\Patient 1\Session 1\Patient1.ASF
:FULLY-SPECIFIED
:DEGREES
3746
root 9.21029 18.1329 -2.27067 -170.316 -82.9759 -179.079
lowerback -7.06774 1.47158 0.114952
upperback 2.87162 1.97787 -0.434986
thorax 6.99459 0.983519 -0.26302
lowerneck -18.3897 -1.35929 -0.907203
upperneck 15.3299 -1.97574 1.78186
head 7.78288 -0.823366 0.502434
rclavicle -1.79527e-015 9.0447e-015
rhumerus -25.454 1.5141 -84.5207
rradius 45.5864
rwrist 6.9375
rhand -21.3045 23.7651
rfingers 7.12502
rthumb 5.08036 -6.15403
lclavicle -1.79527e-015 9.0447e-015
lhumerus -31.0741 4.80118 82.2549
lradius 35.2675
lwrist 10.3936
lhand -15.4411 33.8019
lfingers 7.12502
lthumb 10.7393 63.5074
rfemur 0.183401 5.22287 23.2203
rtibia 17.8977
rfoot 11.6358 3.93601
rtoes 9.75036
lfemur -37.1723 -3.66946 -17.6118
ltibia 24.264
lfoot -5.75152 11.8687
ltoes -5.77422
3747
root 9.11467 18.1282 -2.26017 -170.89 -82.8637 -178.481
lowerback -7.01997 1.44614 0.130346
upperback 2.83102 1.94286 -0.443764
thorax 6.92442 0.967496 -0.287281
lowerneck -18.4055 -1.28941 -0.884667
upperneck 15.281 -1.87954 1.75457
head 7.76747 -0.778945 0.501226
rclavicle 2.96935e-014 -3.08116e-015
rhumerus -25.6163 1.54737 -84.6061
rradius 45.846
rwrist 6.77591
rhand -21.3185 23.8812
rfingers 7.12502
rthumb 5.06681 -6.03824
lclavicle 2.96935e-014 -3.08116e-015
lhumerus -31.0164 4.90587 82.1906
lradius 34.8408
lwrist 10.2272
lhand -15.3314 33.9499
lfingers 7.12502
lthumb 10.8451 63.6499
rfemur 0.438665 5.19562 23.1928
rtibia 17.9818
rfoot 11.5474 3.49227
rtoes 9.05155
lfemur -37.3808 -3.31119 -17.7776
ltibia 25.2055
lfoot -5.46798 11.6576
ltoes -6.90058
3748
root 9.01677 18.1255 -2.24841 -171.481 -82.7446 -177.862
lowerback -6.99149 1.42369 0.16294
upperback 2.79226 1.9103 -0.45341
thorax 6.86798 0.953395 -0.321164
lowerneck -18.4575 -1.21606 -0.856268
upperneck 15.2541 -1.77787 1.7141
head 7.76533 -0.732539 0.495159
rclavicle 1.83876e-015 -8.54774e-015
rhumerus -25.7859 1.59709 -84.6822
rradius 46.0367
rwrist 6.61136
rhand -21.3785 24.0299
rfingers 7.12502
rthumb 5.00891 -5.89086
lclavicle 1.83876e-015 -8.54774e-015
lhumerus -30.9731 4.96233 82.1416
lradius 34.4538
lwrist 10.1369
lhand -15.2326 34.1475
lfingers 7.12502
lthumb 10.9405 63.8425
rfemur 0.689121 5.16796 23.1562
rtibia 18.0769
rfoot 11.4131 2.98744
rtoes 8.18297
lfemur -37.5339 -2.96401 -17.9355
ltibia 26.0595
lfoot -5.26025 11.2057
ltoes -7.08278
3749
root 8.9157 18.1272 -2.2356 -171.97 -82.6127 -177.346
lowerback -6.99665 1.40305 0.185558
upperback 2.76016 1.88119 -0.462482
thorax 6.83764 0.940433 -0.347399
lowerneck -18.5343 -1.13814 -0.829447
upperneck 15.2519 -1.66995 1.6732
head 7.77567 -0.683074 0.489863
rclavicle -4.96962e-015 -4.96962e-016
rhumerus -25.957 1.6785 -84.7412
rradius 46.1577
rwrist 6.45067
rhand -21.4825 24.1787
rfingers 7.12502
rthumb 4.90845 -5.74446
lclavicle -4.96962e-015 -4.96962e-016
lhumerus -30.9453 4.97459 82.1112
lradius 34.1129
lwrist 10.1271
lhand -15.1477 34.3559
lfingers 7.12502
lthumb 11.0223 64.0465
rfemur 0.930999 5.2201 23.0987
rtibia 18.1949
rfoot 11.1862 2.48437
rtoes 7.14755
lfemur -37.6046 -2.67791 -18.0797
ltibia 26.7923
lfoot -5.18952 10.6513
ltoes -6.33022
3750
root 8.81127 18.1341 -2.22227 -172.27 -82.4639 -177.027
lowerback -7.03306 1.38574 0.175452
upperback 2.7372 1.85975 -0.471106
thorax 6.83397 0.929704 -0.352899
lowerneck -18.6126 -1.05754 -0.801848
upperneck 15.2662 -1.5594 1.63396
head 7.79182 -0.632164 0.485332
rclavicle -5.11871e-015 -1.37161e-014
rhumerus -26.1281 1.77405 -84.7762
rradius 46.2176
rwrist 6.2944
rhand -21.5792 24.2522
rfingers 7.12502
rthumb 4.81514 -5.67313
lclavicle -5.11871e-015 -1.37161e-014
lhumerus -30.9231 4.95969 82.1018
lradius 33.7976
lwrist 10.1602
lhand -15.0778 34.5267
lfingers 7.12502
lthumb 11.0897 64.2137
rfemur 1.17588 5.38521 23.0133
rtibia 18.3199
rfoot 10.845 2.03296
rtoes 5.99992
lfemur -37.5816 -2.47697 -18.2144
ltibia 27.4025
lfoot -5.25074 10.1831
ltoes -5.36801
3751
root 8.70386 18.1451 -2.20874 -172.328 -82.293 -176.963
lowerback -7.09723 1.3738 0.121589
upperback 2.72486 1.85002 -0.482738
thorax 6.85635 0.922799 -0.334663
lowerneck -18.6761 -0.976331 -0.764395
upperneck 15.2857 -1.45002 1.5894
head 7.80711 -0.581914 0.477386
rclavicle -4.22417e-015 -1.8487e-014
rhumerus -26.2958 1.8557 -84.789
rradius 46.2231
rwrist 6.15087
rhand -21.6283 24.2305
rfingers 7.12502
rthumb 4.76772 -5.69581
lclavicle -4.22417e-015 -1.8487e-014
lhumerus -30.8911 4.94519 82.1095
lradius 33.4808
lwrist 10.1791
lhand -15.0074 34.639
lfingers 7.12502
lthumb 11.1576 64.3223
rfemur 1.44135 5.61888 22.8925
rtibia 18.4174
rfoot 10.4163 1.63736
rtoes 4.84459
lfemur -37.4745 -2.36373 -18.3486
ltibia 27.9142
lfoot -5.413 9.92712
ltoes -4.98901
3752
root 8.59442 18.1567 -2.19481 -172.185 -82.0927 -177.105
lowerback -7.18307 1.37109 0.040317
upperback 2.71263 1.85625 -0.50647
thorax 6.89102 0.92276 -0.3111
lowerneck -18.71 -0.895409 -0.705754
upperneck 15.2998 -1.34618 1.54024
head 7.81555 -0.533776 0.463908
rclavicle -3.08116e-014 5.06901e-015
rhumerus -26.4744 1.90131 -84.7967
rradius 46.175
rwrist 6.04516
rhand -21.6339 24.1666
rfingers 7.12502
rthumb 4.76228 -5.75985
lclavicle -3.08116e-014 5.06901e-015
lhumerus -30.8502 4.9449 82.116
lradius 33.1499
lwrist 10.14
lhand -14.9127 34.696
lfingers 7.12502
lthumb 11.2489 64.3744
rfemur 1.72375 5.82752 22.7372
rtibia 18.4679
rfoot 9.95812 1.24796
rtoes 3.78164
lfemur -37.313 -2.32802 -18.4799
ltibia 28.3549
lfoot -5.65492 9.88082
ltoes -5.36519
3753
root 8.484 18.1673 -2.18023 -171.918 -81.8615 -177.368
lowerback -7.27503 1.37826 -0.0473917
upperback 2.6852 1.87762 -0.547451
thorax 6.91356 0.930301 -0.300034
lowerneck -18.7095 -0.815915 -0.621534
upperneck 15.3103 -1.25103 1.48805
head 7.81691 -0.48884 0.444297
rclavicle -3.54334e-014 5.96354e-015
rhumerus -26.6848 1.9048 -84.8134
rradius 46.0669
rwrist 6.00671
rhand -21.6228 24.1299
rfingers 7.12502
rthumb 4.77303 -5.79631
lclavicle -3.54334e-014 5.96354e-015
lhumerus -30.8225 4.94694 82.1098
lradius 32.8183
lwrist 10.0414
lhand -14.7932 34.7191
lfingers 7.12502
lthumb 11.3642 64.3912
rfemur 2.00085 5.94588 22.5519
rtibia 18.4887
rfoot 9.49951 0.80321
rtoes 2.80307
lfemur -37.1198 -2.35756 -18.6021
ltibia 28.7381
lfoot -5.96639 9.9447
ltoes -6.12759
3754
root 8.37306 18.1782 -2.16516 -171.563 -81.6083 -177.716
lowerback -7.35998 1.39051 -0.141267
upperback 2.64131 1.90723 -0.600429
thorax 6.91484 0.941964 -0.297346
lowerneck -18.7005 -0.739017 -0.521781
upperneck 15.3337 -1.16327 1.43162
head 7.8212 -0.446989 0.419859
rclavicle 1.5207e-014 1.00386e-014
rhumerus -26.9202 1.87051 -84.8339
rradius 45.886
rwrist 6.05204
rhand -21.6121 24.1506
rfingers 7.12502
rthumb 4.78331 -5.77541
lclavicle 1.5207e-014 1.00386e-014
lhumerus -30.8154 4.93551 82.0982
lradius 32.5011
lwrist 9.90737
lhand -14.6681 34.7317
lfingers 7.12502
lthumb 11.4849 64.3971
rfemur 2.24881 5.98272 22.3392
rtibia 18.5333
rfoot 9.02646 0.29145
rtoes 1.80577
lfemur -36.8904 -2.44431 -18.7164
ltibia 29.0592
lfoot -6.35256 10.0145
ltoes -6.7932
3755
root 8.26167 18.1911 -2.14984 -171.152 -81.3389 -178.125
lowerback -7.43297 1.40541 -0.244992
upperback 2.59118 1.9416 -0.657731
thorax 6.90241 0.955675 -0.293385
lowerneck -18.7182 -0.66407 -0.419188
upperneck 15.3869 -1.07801 1.3678
head 7.84016 -0.406692 0.392149
rclavicle -1.10325e-014 2.78299e-015
rhumerus -27.1523 1.80304 -84.844
rradius 45.6232
rwrist 6.17544
rhand -21.5965 24.2049
rfingers 7.12502
rthumb 4.79835 -5.72077
lclavicle -1.10325e-014 2.78299e-015
lhumerus -30.813 4.89653 82.0949
lradius 32.1958
lwrist 9.76887
lhand -14.5555 34.7108
lfingers 7.12502
lthumb 11.5934 64.3701
rfemur 2.44375 5.98917 22.1019
rtibia 18.6729
rfoot 8.51903 -0.262006
rtoes 0.6905
lfemur -36.6057 -2.57317 -18.8282
ltibia 29.3045
lfoot -6.81724 10.0516
ltoes -7.09318
3756
root 8.14987 18.207 -2.13435 -170.732 -81.0495 -178.553
lowerback -7.50044 1.42305 -0.356569
upperback 2.54678 1.98024 -0.712217
thorax 6.89251 0.97105 -0.281537
lowerneck -18.781 -0.586878 -0.316916
upperneck 15.4741 -0.986925 1.28792
head 7.87819 -0.364953 0.359797
rclavicle -3.52843e-015 -1.55052e-014
rhumerus -27.3491 1.71065 -84.8312
rradius 45.2767
rwrist 6.36252
rhand -21.5431 24.2349
rfingers 7.12502
rthumb 4.84995 -5.68956
lclavicle -3.52843e-015 -1.55052e-014
lhumerus -30.797 4.82601 82.1117
lradius 31.8979
lwrist 9.64926
lhand -14.462 34.6189
lfingers 7.12502
lthumb 11.6836 64.2731
rfemur 2.56431 6.01135 21.8426
rtibia 18.9619
rfoot 7.9712 -0.833637
rtoes -0.566264
lfemur -36.2587 -2.70981 -18.9447
ltibia 29.4691
lfoot -7.3331 10.0791
ltoes -7.08943
3757
root 8.03794 18.2251 -2.1188 -170.345 -80.7451 -178.948
lowerback -7.57832 1.43892 -0.473617
upperback 2.51364 2.0167 -0.75682
thorax 6.89992 0.984792 -0.256102
lowerneck -18.8806 -0.501316 -0.216737
upperneck 15.5804 -0.880616 1.19062
head 7.92897 -0.317676 0.323825
rclavicle -1.57537e-014 7.55382e-015
rhumerus -27.4905 1.60481 -84.7902
rradius 44.8521
rwrist 6.59771
rhand -21.4179 24.1862
rfingers 7.12502
rthumb 4.97081 -5.73545
lclavicle -1.57537e-014 7.55382e-015
lhumerus -30.7642 4.74103 82.1506
lradius 31.6174
lwrist 9.54606
lhand -14.379 34.4861
lfingers 7.12502
lthumb 11.7636 64.1357
rfemur 2.59976 6.05879 21.5702
rtibia 19.4143
rfoot 7.39596 -1.39683
rtoes -1.88038
lfemur -35.8694 -2.81896 -19.0701
ltibia 29.5665
lfoot -7.85916 10.1197
ltoes -6.96578
